<svg xmlns="http://www.w3.org/2000/svg" xmlns:xlink="http://www.w3.org/1999/xlink" viewBox="0,0,256,256" width="50px" height="50px" fill-rule="nonzero"><g fill="#ffffff" fill-rule="nonzero" stroke="none" stroke-width="1" stroke-linecap="butt" stroke-linejoin="miter" stroke-miterlimit="10" stroke-dasharray="" stroke-dashoffset="0" font-family="none" font-weight="none" font-size="none" text-anchor="none" style="mix-blend-mode: normal"><g transform="scale(5.12,5.12)"><path d="M5.69922,7c-0.763,0 -1.245,0.81933 -0.875,1.48633l8.90625,16.02734c0.168,0.302 0.168,0.6687 0,0.9707l-8.9043,16.0293c-0.37,0.667 0.11105,1.48633 0.87305,1.48633h2.30078h3.41211c0.363,0 0.69605,-0.19667 0.87305,-0.51367l9.44531,-17.00195c0.168,-0.302 0.168,-0.6687 0,-0.9707l-9.44531,-17c-0.176,-0.317 -0.51005,-0.51367 -0.87305,-0.51367h-3.41211zM17.00195,7c-0.763,0 -1.246,0.81933 -0.875,1.48633l8.9043,16.0293c0.168,0.302 0.168,0.6687 0,0.9707l-8.9043,16.0293c-0.37,0.666 0.113,1.48438 0.875,1.48438h2.29883h3.41211c0.363,0 0.699,-0.19667 0.875,-0.51367l5.84766,-10.5293l6.27148,10.55469c0.182,0.303 0.50833,0.48828 0.86133,0.48828h3.43164h2.27148c0.769,0 1.25119,-0.83205 0.86719,-1.49805l-19.54883,-34c-0.178,-0.311 -0.50919,-0.50195 -0.86719,-0.50195h-0.00977h-3.41211zM34.24219,18c-0.762,0 -1.24305,0.81933 -0.87305,1.48633l2.22266,4c0.176,0.317 0.51005,0.51367 0.87305,0.51367h10.53516c0.552,0 1,-0.448 1,-1v-4c0,-0.552 -0.448,-1 -1,-1zM39.79883,28c-0.762,0 -1.245,0.81933 -0.875,1.48633l2.22266,4c0.177,0.317 0.51005,0.51367 0.87305,0.51367h4.98047c0.552,0 1,-0.448 1,-1v-4c0,-0.552 -0.448,-1 -1,-1z"></path></g></g></svg>